<svg width="15" height="15" viewBox="0 0 15 15" fill="none" xmlns="http://www.w3.org/2000/svg">
<path d="M7.49999 12.6562C7.49999 12.6562 1.64065 9.37495 1.64065 5.3906C1.64065 4.68624 1.88469 4.00363 2.33124 3.45892C2.7778 2.91421 3.39929 2.54104 4.08997 2.40291C4.78065 2.26477 5.49786 2.3702 6.11957 2.70126C6.74128 3.03232 7.22908 3.56855 7.49999 4.21873V4.21873C7.7709 3.56855 8.2587 3.03232 8.88041 2.70126C9.50212 2.3702 10.2193 2.26477 10.91 2.40291C11.6007 2.54104 12.2222 2.91421 12.6687 3.45892C13.1153 4.00363 13.3593 4.68624 13.3593 5.3906C13.3593 9.37495 7.49999 12.6562 7.49999 12.6562Z" stroke="#4A60A1" stroke-width="0.936687" stroke-linecap="round" stroke-linejoin="round"/>
</svg>
