<svg width="18" height="18" viewBox="0 0 18 18" fill="none" xmlns="http://www.w3.org/2000/svg">
<path d="M5.06251 13.5V15.1875" stroke="#6D737A" stroke-width="1.08848" stroke-linecap="round" stroke-linejoin="round"/>
<path d="M12.9375 13.5V15.1875" stroke="#6D737A" stroke-width="1.08848" stroke-linecap="round" stroke-linejoin="round"/>
<path d="M3.93737 7.31249V3.65625C3.93737 3.28329 4.08552 2.9256 4.34925 2.66188C4.61297 2.39816 4.97065 2.25 5.34361 2.25C5.71657 2.25 6.07426 2.39816 6.33798 2.66188C6.6017 2.9256 6.74986 3.28329 6.74986 3.65625" stroke="#6D737A" stroke-width="1.08848" stroke-linecap="round" stroke-linejoin="round"/>
<path d="M14.0626 6.74998H9.56257V10.125H14.0626V6.74998Z" stroke="#6D737A" stroke-width="1.08848" stroke-linecap="round" stroke-linejoin="round"/>
<path d="M14.0624 7.31248H16.3123C16.4615 7.31248 16.6046 7.37174 16.7101 7.47723C16.8156 7.58272 16.8748 7.72579 16.8748 7.87497V10.125C16.8748 11.0201 16.5193 11.8785 15.8863 12.5114C15.2534 13.1444 14.395 13.5 13.4999 13.5H4.49988C3.60478 13.5 2.74633 13.1444 2.1134 12.5114C1.48047 11.8785 1.12489 11.0201 1.12489 10.125V7.87497C1.12489 7.72579 1.18415 7.58272 1.28964 7.47723C1.39513 7.37174 1.5382 7.31248 1.68739 7.31248H9.56237" stroke="#6D737A" stroke-width="1.08848" stroke-linecap="round" stroke-linejoin="round"/>
</svg>
