<svg width="15" height="15" viewBox="0 0 15 15" fill="none" xmlns="http://www.w3.org/2000/svg">
<path d="M3.75005 9.37495C4.78558 9.37495 5.62504 8.53549 5.62504 7.49996C5.62504 6.46443 4.78558 5.62497 3.75005 5.62497C2.71452 5.62497 1.87506 6.46443 1.87506 7.49996C1.87506 8.53549 2.71452 9.37495 3.75005 9.37495Z" stroke="#4A60A1" stroke-width="0.936687" stroke-linecap="round" stroke-linejoin="round"/>
<path d="M10.3124 13.5937C11.3479 13.5937 12.1874 12.7542 12.1874 11.7187C12.1874 10.6832 11.3479 9.8437 10.3124 9.8437C9.27687 9.8437 8.43741 10.6832 8.43741 11.7187C8.43741 12.7542 9.27687 13.5937 10.3124 13.5937Z" stroke="#4A60A1" stroke-width="0.936687" stroke-linecap="round" stroke-linejoin="round"/>
<path d="M10.3124 5.15623C11.3479 5.15623 12.1874 4.31677 12.1874 3.28124C12.1874 2.24571 11.3479 1.40625 10.3124 1.40625C9.27687 1.40625 8.43741 2.24571 8.43741 3.28124C8.43741 4.31677 9.27687 5.15623 10.3124 5.15623Z" stroke="#4A60A1" stroke-width="0.936687" stroke-linecap="round" stroke-linejoin="round"/>
<path d="M8.73632 4.29489L5.32618 6.48628" stroke="#4A60A1" stroke-width="0.936687" stroke-linecap="round" stroke-linejoin="round"/>
<path d="M5.32618 8.51361L8.73632 10.705" stroke="#4A60A1" stroke-width="0.936687" stroke-linecap="round" stroke-linejoin="round"/>
</svg>
