<svg width="18" height="18" viewBox="0 0 18 18" fill="none" xmlns="http://www.w3.org/2000/svg">
<path d="M1.12489 8.43748H16.8748" stroke="#6D737A" stroke-width="1.08848" stroke-linecap="round" stroke-linejoin="round"/>
<path d="M15.75 12.9375V14.625C15.75 14.7741 15.6907 14.9172 15.5852 15.0227C15.4797 15.1282 15.3367 15.1875 15.1875 15.1875H13.5C13.3508 15.1875 13.2077 15.1282 13.1022 15.0227C12.9968 14.9172 12.9375 14.7741 12.9375 14.625V12.9375" stroke="#6D737A" stroke-width="1.08848" stroke-linecap="round" stroke-linejoin="round"/>
<path d="M5.06252 12.9375V14.625C5.06252 14.7741 5.00326 14.9172 4.89777 15.0227C4.79228 15.1282 4.64921 15.1875 4.50003 15.1875H2.81253C2.66335 15.1875 2.52027 15.1282 2.41478 15.0227C2.30929 14.9172 2.25003 14.7741 2.25003 14.625V12.9375" stroke="#6D737A" stroke-width="1.08848" stroke-linecap="round" stroke-linejoin="round"/>
<path d="M4.50006 10.6875H5.62506" stroke="#6D737A" stroke-width="1.08848" stroke-linecap="round" stroke-linejoin="round"/>
<path d="M12.375 10.6875H13.5" stroke="#6D737A" stroke-width="1.08848" stroke-linecap="round" stroke-linejoin="round"/>
<path d="M15.75 8.43747L13.6477 3.71248C13.604 3.61252 13.5323 3.5274 13.4412 3.46748C13.35 3.40756 13.2434 3.37542 13.1344 3.37498H4.86565C4.75658 3.37542 4.65 3.40756 4.55887 3.46748C4.46774 3.5274 4.39599 3.61252 4.35237 3.71248L2.25003 8.43747V12.9375H15.75V8.43747Z" stroke="#6D737A" stroke-width="1.08848" stroke-linecap="round" stroke-linejoin="round"/>
</svg>
